<svg xmlns="http://www.w3.org/2000/svg" viewBox="0 0 502.58 109.52"><title>Wonderdog, Inc</title><polygon points="0 16.19 18.44 5.4 21.59 51.27 38.68 13.27 45.88 48.8 61.39 0 77.92 7.09 40.25 105.92 31.48 69.27 12.14 109.52 0 16.19"/><path d="M106.67,53.34a22.64,22.64,0,0,1-6.19,16,21,21,0,0,1-31.11,0,22.65,22.65,0,0,1-6.2-16,22.74,22.74,0,0,1,6.27-16,21.12,21.12,0,0,1,31,0A22.78,22.78,0,0,1,106.67,53.34Zm-13.12,0a11.77,11.77,0,0,0-2.3-7.1,7.4,7.4,0,0,0-6.33-3.52,7.5,7.5,0,0,0-6.32,3.52,11.71,11.71,0,0,0-2.3,7.1,11.84,11.84,0,0,0,2.3,7.18,7.54,7.54,0,0,0,6.32,3.45,7.45,7.45,0,0,0,6.33-3.45A11.9,11.9,0,0,0,93.55,53.31Z"/><path d="M147.44,34.77l-.82,39.6-15.13-.22L119.37,54.21c.11,4.84.21,8.26.31,10.28q.22,5.74.76,10.2L106.69,74a180.85,180.85,0,0,1-.94-18.87q0-9.8.14-21.1l16.22-.51L134,55.44l.79-21.1Z"/><path d="M190.74,52.43q0,7.91-6.39,15.74-6.6,8.06-14.29,8.77l-3.67-8.26.35,6.12-13.37.36q-.94-11.73-1.51-28.15L148,48l-2.59-13a60.25,60.25,0,0,1,20.35-3.59q11.35,0,17.76,4.67Q190.74,41.51,190.74,52.43ZM176.37,51a5.47,5.47,0,0,0-2.87-5,11,11,0,0,0-5.89-1.51c-.57,0-1.29,0-2.15.08q.22,6.74.78,20.23,4.14-.72,7.21-5.24A15.06,15.06,0,0,0,176.37,51Z"/><path d="M224.41,74.06q-11.47,1-27.18.88l-6.2-.07q-.75-11-.75-19.6t.57-21.4L223,33.44l.15,12.5-19.21.62-.25,2h19.6l.29,10-19.64.59v2.4l20-.86Z"/><path d="M268.09,44.28Q268.09,55,257.23,60l7.91,11.58-12.37,6.74L242.21,63.13V75.45H228.84V47.37c-1.31.34-2.66.67-4.07,1L223,34.88q14.7-3.43,25.37-3.44a28.47,28.47,0,0,1,12.84,2.73Q268.08,37.61,268.09,44.28Zm-15,3.63c0-1.11-.94-1.91-2.79-2.39a14.81,14.81,0,0,0-4.3-.58,35.31,35.31,0,0,0-3.79.22v8.91Q253.09,52.48,253.09,47.91Z"/><path d="M309.76,52.43q0,7.91-6.39,15.74-6.62,8.06-14.3,8.77l-3.66-8.26.35,6.12-13.38.36q-.93-11.73-1.51-28.15L267,48l-2.6-13a60.3,60.3,0,0,1,20.35-3.59q11.37,0,17.76,4.67Q309.77,41.51,309.76,52.43ZM295.38,51a5.45,5.45,0,0,0-2.87-5,11,11,0,0,0-5.88-1.51c-.58,0-1.3,0-2.16.08q.24,6.74.79,20.23,4.13-.72,7.2-5.24A15,15,0,0,0,295.38,51Z"/><path d="M351.54,53.34a22.64,22.64,0,0,1-6.19,16,21,21,0,0,1-31.12,0,22.64,22.64,0,0,1-6.19-16,22.74,22.74,0,0,1,6.27-16,21.1,21.1,0,0,1,31,0A22.74,22.74,0,0,1,351.54,53.34Zm-13.12,0a11.72,11.72,0,0,0-2.31-7.1,7.38,7.38,0,0,0-6.32-3.52,7.5,7.5,0,0,0-6.32,3.52,11.71,11.71,0,0,0-2.3,7.1,11.84,11.84,0,0,0,2.3,7.18,7.54,7.54,0,0,0,6.32,3.45,7.42,7.42,0,0,0,6.32-3.45A11.84,11.84,0,0,0,338.42,53.31Z"/><path d="M395,53.27a22.6,22.6,0,0,1-7,16.8A23.35,23.35,0,0,1,371,76.94a21.1,21.1,0,0,1-15.16-5.73q-6-5.73-6-14.89a23.26,23.26,0,0,1,7.85-17.74,25.63,25.63,0,0,1,18.14-7.14,33.68,33.68,0,0,1,11.88,1.73L385.22,47.3a31.39,31.39,0,0,0-7.13-1.22,16.31,16.31,0,0,0-9.58,2.66,9.84,9.84,0,0,0-4.39,8.63,6.5,6.5,0,0,0,2.3,5.33,9,9,0,0,0,5.84,1.86q4.39,0,8.42-3.75-3.17.07-10.08.53l-.64-10,24.4-2A12.54,12.54,0,0,1,395,53.27Z"/><path d="M405.26,69.89c0,2.59-1.32,4.81-4,6.68a11.66,11.66,0,0,1-7.55,2.37h-1.08a13.16,13.16,0,0,0,5.68-3.5h-1.43a11.12,11.12,0,0,1-5.33-1.3q-3-1.58-3-4.24t3-4.17a11.64,11.64,0,0,1,10.65,0C404.25,66.79,405.26,68.17,405.26,69.89Z"/><path d="M421.47,33.82q-1,13.17-1,24.1,0,10.72.37,16.84L408,75.19q-.51-8-.5-17.63t.79-24.25Z"/><path d="M463.58,34.77l-.81,39.6-15.14-.22L435.52,54.21c.1,4.84.2,8.26.3,10.28q.24,5.74.76,10.2L422.83,74a183.7,183.7,0,0,1-.93-18.87q0-9.8.14-21.1l16.22-.51,11.89,21.88.79-21.1Z"/><path d="M502.58,68.79a22.79,22.79,0,0,1-18.14,8.15,21.1,21.1,0,0,1-15.16-5.73q-6-5.73-6-14.89a23.29,23.29,0,0,1,7.84-17.74,25.67,25.67,0,0,1,18.15-7.14,33.68,33.68,0,0,1,11.88,1.73L498.62,47.3a31.39,31.39,0,0,0-7.13-1.22,16.43,16.43,0,0,0-9.65,2.67,10,10,0,0,0-4.32,8.69,6.6,6.6,0,0,0,2,5,7,7,0,0,0,5.07,1.91q7.28,0,12.82-7.65Z"/></svg>